<?xml version="1.0" encoding="UTF-8"?>
<svg width="1075px" height="818px" viewBox="0 0 1075 818" version="1.1" xmlns="http://www.w3.org/2000/svg" xmlns:xlink="http://www.w3.org/1999/xlink">
    <!-- Generator: Sketch 55.2 (78181) - https://sketchapp.com -->
    <title>phil</title>
    <desc>Created with Sketch.</desc>
    <g id="Page-1" stroke="none" stroke-width="1" fill="none" fill-rule="evenodd">
        <g id="Artboard-Copy" transform="translate(-510.000000, -293.000000)" fill-rule="nonzero">
            <g id="phil" transform="translate(510.000000, 293.000000)">
                <polygon id="Path" fill="#1C1C1C" points="787 394.71 771.121 466.13 758.231 524.07 747.957 570.28 735.075 628.22 692.98 817.51 171.363 576.48 133.021 558.76 84.488 536.33 46.133 518.61 0 497.29 26.153 459.24 47.902 427.6 75.415 387.57 97.156 355.95 341.818 0 600.999 229.8 647.153 270.72 683.955 303.35 730.115 344.27"></polygon>
                <polygon id="Path" fill="#64E8B0" points="591.611 484.662 618.556 531.331 645.5 578 591.611 578 537.723 578 564.667 531.331"></polygon>
                <rect id="Rectangle" fill="#64E8B0" x="325.5" y="393" width="113" height="113"></rect>
                <circle id="Oval" fill="#64E8B0" cx="519.5" cy="248.5" r="72.5"></circle>
                <path d="M584.75027,369.5558 C584.75027,362.928383 590.122853,357.5558 596.75027,357.5558 C603.377687,357.5558 608.75027,362.928383 608.75027,369.5558 C608.75027,376.183217 603.377687,381.5558 596.75027,381.5558 C590.125921,381.548399 584.757671,376.180149 584.75027,369.5558 Z M586.75027,369.5558 C586.75027,375.078647 591.227423,379.5558 596.75027,379.5558 C602.273117,379.5558 606.75027,375.078647 606.75027,369.5558 C606.75027,364.032953 602.273117,359.5558 596.75027,359.5558 C591.230038,359.56211 586.75658,364.035568 586.75027,369.5558 Z" id="Shape" fill="#3F3D56"></path>
                <path d="M481.43558,578.29312 L463.77169,559.35529 L482.70952,541.69141 L500.37341,560.62924 L481.43558,578.29312 Z M466.58721,559.45329 L481.53358,575.4776 L497.55789,560.53124 L482.61152,544.50693 L466.58721,559.45329 Z" id="Shape" fill="#3F3D56"></path>
                <path d="M335.55413,308.887 L321.17783,293.47386 L336.591,279.09754 L350.9673,294.51068 L335.55413,308.887 Z M323.46932,293.5536 L335.63389,306.59549 L348.67578,294.43093 L336.51121,281.389 L323.46932,293.5536 Z" id="Shape" fill="#3F3D56"></path>
                <rect id="Rectangle" fill="#3F3D56" x="450.5" y="816" width="624" height="2"></rect>
                <path d="M537.5,330 C482.271525,330 437.5,285.228475 437.5,230 C437.5,174.771525 482.271525,130 537.5,130 C592.728475,130 637.5,174.771525 637.5,230 C637.437551,285.202587 592.702587,329.937551 537.5,330 L537.5,330 Z M537.5,132 C483.376095,132 439.5,175.876095 439.5,230 C439.5,284.123905 483.376095,328 537.5,328 C591.623905,328 635.5,284.123905 635.5,230 C635.438988,175.901386 591.598614,132.061012 537.5,132 Z" id="Shape" fill="#3F3D56"></path>
                <rect id="Rectangle" fill="#3F3D56" transform="translate(463.922610, 335.118901) rotate(-64.335790) translate(-463.922610, -335.118901) " x="434.099195" y="334.118881" width="59.64683" height="2.00004"></rect>
                <rect id="Rectangle" fill="#3F3D56" transform="translate(526.394053, 464.790561) rotate(-61.578070) translate(-526.394053, -464.790561) " x="525.393963" y="400.099071" width="2.00018" height="129.38298"></rect>
                <path d="M470.5,507 L324.5,507 L324.5,361 L470.5,361 L470.5,507 Z M326.5,505 L468.5,505 L468.5,363 L326.5,363 L326.5,505 Z" id="Shape" fill="#3F3D56"></path>
                <path d="M687.00977,579 L535.99121,579 L611.5,448.21436 L687.00977,579 Z M539.45508,577 L683.54492,577 L611.5,452.21387 L539.45508,577 Z" id="Shape" fill="#3F3D56"></path>
                <circle id="Oval" fill="#A0616A" cx="877.5" cy="337" r="25"></circle>
                <path d="M890.5,350 C890.5,350 893.5,380 898.5,385 C903.5,390 863.5,382 863.5,382 C863.5,382 869.5,357 865.5,353 C861.5,349 890.5,350 890.5,350 Z" id="Path" fill="#A0616A"></path>
                <path d="M908,400.5 C908,400.5 920,434.5 923,455.5 C926,476.5 926,485.5 926,485.5 C926,485.5 939,525.5 935,544.5 C935,544.5 950,589.5 937,589.5 C924,589.5 920,552.5 920,552.5 L900,457.5 L908,400.5 Z" id="Path" fill="#A0616A"></path>
                <path d="M914,416.5 C914,416.5 911,379.5 898,376.5 C891.79376,375.06779 881.713,372.95184 872.87159,371.13141 C857.46953,367.96014 841.58259,375.26753 834.58125,389.34806 C833.268598,391.90091 832.395941,394.656881 832,397.5 C830,413.5 820,413.5 829,434.5 C838,455.5 836,477.5 836,477.5 L842,530.5 C842,530.5 817,600.5 819,647.5 L796,762.5 C796,762.5 801,774.5 815,768.5 C815,768.5 850,709.5 847,666.5 L883,586.5 C883,586.5 908,662.5 915,669.5 L933,777.5 C933,777.5 950,782.5 958,777.5 C958,777.5 961,673.5 944,656.5 C944,656.5 927,584.5 931,565.5 C935,546.5 936,517.5 906,491.5 C906,491.5 910,480.5 897,474.5 L907,442.5 L914,416.5 Z" id="Path" fill="#2F2E41"></path>
                <path d="M851.28,373.884 C851.01,373.845 850.734377,373.812703 850.45313,373.78711 C841.59874,372.98776 833.97522,380.05756 833.58048,388.93918 L832,424.5 L826,463.5 L813,547.5 C813,547.5 788,577.5 805,579.5 C822,581.5 825,546.5 825,546.5 L847,480.5 L856,419.5 C856,419.5 866.49746,409.00254 862.12847,384.73487 C861.215274,379.164794 856.849874,374.798428 851.28,373.884 L851.28,373.884 Z" id="Path" fill="#A0616A"></path>
                <path d="M794,758.5 L787,794.5 C787,794.5 770,802.5 781,812.5 C792,822.5 807,810.5 807,810.5 L811,798.5 L810,816.5 L813,816.5 L816,798.5 C816,798.5 822,787.5 818,778.5 L818,766.5 L794,758.5 Z" id="Path" fill="#2F2E41"></path>
                <path d="M930.5,762 L926.5,795 C926.5,795 909.5,803 920.5,813 C931.5,823 946.5,811 946.5,811 L950.5,799 L949.5,817 L952.5,817 L955.5,799 C955.5,799 961.5,788 957.5,779 L957.5,767 L930.5,762 Z" id="Path" fill="#2F2E41"></path>
                <path d="M890.54135,298.35862 L890.54114,298.35862 C889.138971,298.361354 887.74039,298.500425 886.36514,298.77387 C883.880455,297.567674 881.154984,296.939508 878.393,296.93645 L877.66929,296.93645 C863.7184,296.93645 852.4092,309.56045 852.4092,325.13282 L852.4092,325.13287 L857.08367,325.13287 L857.83867,319.38663 L858.9454,325.13287 L862.83968,325.13287 C861.628289,329.743615 861.020286,334.492056 861.0309,339.25927 L861.0309,367.95857 L868.09845,367.95857 L872.19028,357.32521 L871.16728,367.95857 L916.59538,367.95857 L920.31524,358.2919 L919.38524,367.95857 L924.5,367.95857 L924.5,345.42446 C924.5,319.43076 909.2961,298.35862 890.54135,298.35862 Z" id="Path" fill="#2F2E41"></path>
                <rect id="Rectangle" fill="#3F3D56" x="1029.36732" y="481.54033" width="1.8747" height="335.24432"></rect>
                <ellipse id="Oval" fill="#3F3D56" cx="1030.66625" cy="704.63011" rx="36.55673" ry="83.42433"></ellipse>
                <ellipse id="Oval" fill="#3F3D56" cx="1030.66625" cy="514.34765" rx="36.55673" ry="83.42433"></ellipse>
                <path d="M1031.56424,446.19007 L1029.76824,445.65183 C1029.88175,445.27283 1040.90296,407.50462 1022.80624,383.19114 C1012.58508,369.45948 995.04589,362.49662 970.67565,362.49662 L970.67565,360.62192 C995.67476,360.62192 1013.72153,367.84108 1024.31525,382.07892 C1042.9722,407.15449 1031.68049,445.80287 1031.56424,446.19007 Z" id="Path" fill="#3F3D56"></path>
                <circle id="Oval" fill="#F2F2F2" cx="970.67572" cy="361.55927" r="23.4338"></circle>
            </g>
        </g>
    </g>
</svg>