<?xml version="1.0" encoding="UTF-8"?>
<svg width="1081px" height="785px" viewBox="0 0 1081 785" version="1.1" xmlns="http://www.w3.org/2000/svg" xmlns:xlink="http://www.w3.org/1999/xlink">
    <!-- Generator: Sketch 55.2 (78181) - https://sketchapp.com -->
    <title>resourcesDark</title>
    <desc>Created with Sketch.</desc>
    <g id="Page-1" stroke="none" stroke-width="1" fill="none" fill-rule="evenodd">
        <g id="Artboard" transform="translate(-583.000000, -304.000000)" fill-rule="nonzero">
            <g id="resourcesDark" transform="translate(583.000000, 304.000000)">
                <path d="M388.59508,215.94046 C368.252845,237.06578 340.001497,248.719169 310.681266,248.079105 C281.361035,247.43904 253.645148,234.563879 234.24419,212.57096 L0,434.29569 L329.39343,782.288 L643.3656,485.09635 L388.59508,215.94046 Z" id="Path" fill="#1C1C1C"></path>
                <path d="M312.77858,226.184042 C337.758082,226.213887 361.667168,216.044962 378.97216,198.0307 L313.65389,129.02429 L243.867,195.08129 C261.294234,214.878653 286.403529,226.211507 312.77858,226.184042 Z" id="Path" fill="#232323"></path>
                <path d="M826.97233,327.1041 C827.016564,370.878418 809.646945,412.872619 778.693812,443.825752 C747.740679,474.778885 705.746478,492.148504 661.97216,492.10427 C661.03216,492.10427 660.09216,492.0941 659.15216,492.0741 C655.19216,492.0141 651.28216,491.8141 647.39216,491.4741 C558.504461,483.593187 491.987514,406.473244 497.243935,317.39181 C502.500356,228.310376 577.625352,159.548289 666.823048,162.175646 C756.020743,164.803004 826.968168,237.867718 826.97233,327.1041 L826.97233,327.1041 Z" id="Path" fill-opacity="0.707686844" fill="#64E8B0" opacity="0.405877976"></path>
                <path d="M757.59216,267.39408 C767.935893,249.153183 774.687146,229.098588 777.48046,208.31589 C732.729711,165.173742 667.530505,150.842866 608.813166,171.242584 C550.095826,191.642302 507.826103,243.31029 499.46337,304.90525 C526.563238,331.102584 561.843145,347.190697 599.39208,350.47409 C603.28221,350.81409 607.19208,351.01409 611.15208,351.07409 C612.09214,351.09409 613.03216,351.104278 613.97214,351.104278 C673.445162,351.167466 728.336243,319.173785 757.59214,267.39409 L757.59216,267.39408 Z" id="Path" fill="#000000" opacity="0.405877976"></path>
                <rect id="Rectangle" fill="#2F2E41" x="469.97217" y="488.10409" width="265" height="296"></rect>
                <path d="M819.84216,388.70407 C799.03539,437.548255 756.02071,473.415525 704.23216,485.10407 L740.97216,485.10407 L740.97216,781.10407 L496.55216,781.10407 L633.72216,543.51407 L665.15216,489.07407 L667.44216,485.10407 L771.47216,304.92407 L819.84216,388.70407 Z" id="Path" fill="#000000" opacity="0.1"></path>
                <polygon id="Path" fill="#3F3D56" points="805.472 306.924 943.222 545.514 1080.972 784.104 805.472 784.104 529.972 784.104 667.722 545.514"></polygon>
                <polygon id="Path" fill="#9F616A" points="171.505 736.835 169.68 752.045 159.337 756.912 147.777 753.261 139.868 756.912 137.435 742.919 151.428 727.1"></polygon>
                <path d="M164.20408,748.39413 C164.20408,748.39413 173.63663,737.39767 173.78753,742.8959 C173.93843,748.39413 194.62393,767.25444 194.62393,767.25444 C194.62393,767.25444 226.86893,776.98879 201.92469,783.07276 C176.98045,789.15673 122.22469,771.51322 120.3995,767.86284 C118.57431,764.21246 135.60942,736.22619 137.43461,738.65978 C139.2598,741.09337 148.38578,749.61093 164.20408,748.39413 Z" id="Path" fill="#2F2E41"></path>
                <path d="M187.32319,567.70022 C187.32319,567.70022 190.97357,596.29488 187.32319,600.55366 C183.67281,604.81244 185.498,613.33 187.32319,614.54679 C189.14838,615.76358 184.8896,620.63079 181.84761,623.06435 C178.80562,625.49791 174.54685,636.44909 174.54685,636.44909 C174.54685,636.44909 158.12013,679.64527 158.12013,683.90409 C158.12013,688.16291 150.81937,697.28883 151.42776,700.33081 C152.03615,703.37279 147.16898,713.10715 147.77738,714.93234 C148.38578,716.75753 139.86822,733.18425 142.30181,735.61784 C144.7354,738.05143 178.19723,746.56898 176.37204,741.09341 C174.54685,735.61784 173.33004,728.92547 174.54685,728.92547 C175.76366,728.92547 181.23922,722.2331 180.02242,719.79952 C178.80562,717.36594 216.52624,653.48424 216.52624,653.48424 L187.32319,567.70022 Z" id="Path" fill="#2F2E41"></path>
                <path d="M164.20408,748.39413 C164.20408,748.39413 173.63663,737.39767 173.78753,742.8959 C173.93843,748.39413 194.62393,767.25444 194.62393,767.25444 C194.62393,767.25444 226.86893,776.98879 201.92469,783.07276 C176.98045,789.15673 122.22469,771.51322 120.3995,767.86284 C118.57431,764.21246 135.60942,736.22619 137.43461,738.65978 C139.2598,741.09337 148.38578,749.61093 164.20408,748.39413 Z" id="Path" fill="#000000" opacity="0.1"></path>
                <path d="M187.32319,567.70022 C187.32319,567.70022 190.97357,596.29488 187.32319,600.55366 C183.67281,604.81244 185.498,613.33 187.32319,614.54679 C189.14838,615.76358 184.8896,620.63079 181.84761,623.06435 C178.80562,625.49791 174.54685,636.44909 174.54685,636.44909 C174.54685,636.44909 158.12013,679.64527 158.12013,683.90409 C158.12013,688.16291 150.81937,697.28883 151.42776,700.33081 C152.03615,703.37279 147.16898,713.10715 147.77738,714.93234 C148.38578,716.75753 139.86822,733.18425 142.30181,735.61784 C144.7354,738.05143 178.19723,746.56898 176.37204,741.09341 C174.54685,735.61784 173.33004,728.92547 174.54685,728.92547 C175.76366,728.92547 181.23922,722.2331 180.02242,719.79952 C178.80562,717.36594 216.52624,653.48424 216.52624,653.48424 L187.32319,567.70022 Z" id="Path" fill="#000000" opacity="0.1"></path>
                <polygon id="Path" fill="#9F616A" points="249.38 729.282 256.072 746.317 253.03 770.044 233.561 768.828 222.61 759.093 222.61 738.408"></polygon>
                <path d="M245.7293,749.9672 C245.7293,749.9672 252.42167,728.06491 256.07208,734.14884 C258.384501,738.056265 260.417576,742.122396 262.15608,746.31678 C262.15608,746.31678 291.96753,765.78549 299.87669,765.78549 C307.78585,765.78549 315.08662,775.51984 304.74387,779.17022 C294.40112,782.8206 215.30951,787.68778 214.09272,779.17022 C212.87593,770.65266 215.30951,743.2748 218.95989,746.31678 C222.61027,749.35876 241.47052,756.05117 245.7293,749.9672 Z" id="Path" fill="#2F2E41"></path>
                <path d="M260.93922,480.44733 C260.93922,480.44733 287.75537,498.67051 288.97216,501.1041 C290.18895,503.53769 305.7485,511.0201 292.97216,517.1041 C280.19582,523.1881 246.3377,484.7061 246.3377,484.7061 L260.93922,480.44733 Z" id="Path" fill="#9F616A"></path>
                <path d="M247.55449,445.1603 C247.55449,445.1603 267.02319,482.88092 263.37281,484.09771 C259.72243,485.3145 245.1209,492.61527 245.1209,492.61527 L238.42854,454.28627 L247.55449,445.1603 Z" id="Path" fill="#575A88"></path>
                <path d="M247.55449,445.1603 C247.55449,445.1603 267.02319,482.88092 263.37281,484.09771 C259.72243,485.3145 245.1209,492.61527 245.1209,492.61527 L238.42854,454.28627 L247.55449,445.1603 Z" id="Path" fill="#000000" opacity="0.1"></path>
                <path d="M246.3377,476.79695 C246.3377,476.79695 250.59648,508.43359 248.77128,515.12595 C246.94608,521.81831 249.98808,622.20382 247.55449,627.6794 C245.1209,633.15498 243.29571,668.44199 243.29571,672.70077 C243.29571,676.95955 248.16289,711.63818 249.37971,714.68017 C250.59653,717.72216 254.24689,728.0649 252.42171,732.93208 C250.59653,737.79926 225.65224,749.96719 222.00186,745.70841 C218.35148,741.44963 221.39346,728.0649 218.35147,727.4565 C215.30948,726.8481 211.65911,698.25345 211.65911,698.25345 L191.58201,586.30845 C191.58201,586.30845 153.86139,492.61531 162.37895,483.48935 C170.89651,474.36339 246.3377,476.79695 246.3377,476.79695 Z" id="Path" fill="#2F2E41"></path>
                <circle id="Oval" fill="#9F616A" cx="223.82701" cy="231.00455" r="29.81145"></circle>
                <path d="M234.77815,255.34044 C234.77815,255.34044 225.0438,280.89311 226.2606,286.36868 C227.4774,291.84425 197.66594,276.63433 197.66594,276.63433 C197.66594,276.63433 199.49113,246.82288 197.66594,238.91372 C195.84075,231.00456 234.77815,255.34044 234.77815,255.34044 Z" id="Path" fill="#9F616A"></path>
                <path d="M153.03401,421.80393 C153.1677,426.90839 153.25295,429.95038 153.25295,429.95038 C153.25295,429.95038 151.42776,457.93664 154.46975,467.0626 C157.51174,476.18856 157.51175,482.88092 159.33692,488.96489 C159.87224,490.73531 167.15492,491.6844 177.38192,492.1042 C186.7635,492.48749 198.62115,492.43276 210.00424,492.17111 C228.85236,491.73311 246.42295,490.72316 249.37967,490.18168 C256.07204,488.96489 248.16288,478.62214 250.59647,473.14657 C253.03006,467.671 246.33769,397.70534 246.33769,397.70534 C246.33769,397.70534 246.94608,358.15953 243.9041,342.94961 C240.86212,327.73969 229.30258,303.40384 226.86899,300.36184 C224.4354,297.31984 226.2606,295.49466 231.73617,291.84428 C237.21174,288.1939 231.73617,274.20076 231.73617,274.20076 C221.39342,265.68321 195.23235,264.46641 195.23235,264.46641 C195.23235,264.46641 155.07815,305.83741 152.64456,314.35497 C151.17228,319.50197 151.70156,360.61746 152.34645,392.36361 C152.59584,404.30643 152.85756,414.92905 153.03401,421.80393 Z" id="Path" fill="#575A88"></path>
                <path d="M204.3583,497.48245 C204.3583,497.48245 227.47739,544.93745 209.22548,547.9794 C190.97357,551.02135 181.84761,504.78321 181.84761,504.78321 L204.3583,497.48245 Z" id="Path" fill="#9F616A"></path>
                <path d="M251.70177,215.89395 C252.75601,210.78095 248.84839,206.00134 244.73287,202.78932 C235.770053,195.838124 224.743229,192.07789 213.40081,192.104554 C205.42229,192.14818 197.18802,194.25874 191.15766,199.48306 C184.12388,205.57666 180.91537,215.34866 181.50593,224.63613 C182.09649,233.9236 186.13566,242.73238 191.58393,250.27713 C194.19882,253.89824 198.39842,257.6467 202.57687,256.06851 C204.211865,255.303029 205.614842,254.117998 206.64298,252.63405 C209.323122,249.30855 211.658511,245.719389 213.61318,241.92184 C215.10862,239.01584 216.40398,235.95294 218.52343,233.46519 C220.64288,230.97744 223.82822,229.10641 227.06573,229.55314 C229.74002,229.92214 232.36332,231.80473 234.91396,230.92026 C237.75162,229.93626 238.43757,226.30763 238.66324,223.31269 C238.9106,220.02995 238.73541,216.22735 239.64694,213.12369 C240.64393,213.65599 251.21181,218.34384 251.70177,215.89395 Z" id="Path" fill="#2F2E41"></path>
                <path d="M153.03401,421.80393 C159.84801,446.3771 175.47771,487.79069 176.37201,489.57328 C176.59719,490.02958 176.94996,490.92391 177.3819,492.1042 C186.76348,492.48749 198.62113,492.43276 210.00422,492.17111 C208.23977,487.55949 206.18346,483.10602 206.18346,481.66411 C206.18346,478.62211 191.58194,400.13891 191.58194,400.13891 C191.58194,400.13891 203.14148,365.46029 213.48423,336.25723 C223.82698,307.05417 182.76023,312.83394 182.76023,312.83394 C160.85794,307.35837 156.90336,316.78852 156.90336,316.78852 C156.90336,316.78852 154.97479,368.07639 152.34647,392.36358 C151.67108,398.58751 150.95322,403.03489 150.21099,404.39769 C149.23747,406.1803 150.55171,412.88484 153.03401,421.80393 Z" id="Path" fill="#000000" opacity="0.1"></path>
                <path d="M191.58197,293.06105 C191.58197,293.06105 219.56823,304.62059 209.22548,333.82365 C198.88273,363.02671 187.32319,397.70534 187.32319,397.70534 C187.32319,397.70534 201.92471,476.18855 201.92471,479.23054 C201.92471,482.27253 211.05071,498.69924 207.40029,501.74122 C203.74987,504.7832 179.41403,510.86722 178.80563,507.82522 C178.19723,504.78322 173.33006,489.57331 172.11326,487.13973 C170.89646,484.70615 142.30181,408.65651 145.95219,401.96415 C148.63846,397.03931 150.99527,351.91966 152.05281,328.4299 C152.549973,314.79583 160.203661,302.435642 172.18722,295.91419 C177.85957,292.90784 184.46372,291.28149 191.58197,293.06105 Z" id="Path" fill="#575A88"></path>
                <rect id="Rectangle" fill="#64E8B0" x="267.97217" y="471.10409" width="36" height="36"></rect>
                <circle id="Oval" fill="#3F3D56" cx="285.97217" cy="460.10409" r="11"></circle>
                <circle id="Oval" fill="#FF6584" cx="711.11943" cy="56.01524" r="54.31516"></circle>
                <path d="M710.97216,93.11453 C710.97216,134.0952 686.60981,148.40411 656.55732,148.40411 C626.50483,148.40411 602.14248,134.0952 602.14248,93.11453 C602.14248,52.13386 656.55732,1.42108547e-14 656.55732,1.42108547e-14 C656.55732,1.42108547e-14 710.97216,52.13384 710.97216,93.11453 Z" id="Path" fill="#1E1E1E"></path>
                <polygon id="Path" fill="#3F3D56" points="654.575 142.135 655.132 107.838 678.325 65.408 655.22 102.458 655.47 87.037 671.455 56.339 655.537 82.956 655.537 82.956 655.987 55.22 673.104 30.78 656.058 50.858 656.339 0 654.57 67.327 654.716 64.549 637.313 37.912 654.437 69.881 652.815 100.858 652.767 100.035 632.705 72.003 652.706 102.94 652.503 106.814 652.467 106.872 652.484 107.19 648.37 185.78 653.866 185.78 654.526 145.187 674.478 114.326"></polygon>
                <path d="M842.08939,154.36774 C829.08699,193.23099 801.44345,199.07087 772.94374,189.53574 C744.44403,180.00061 725.88038,158.70134 738.88274,119.83809 C751.8851,80.97484 820.02954,48.79945 820.02954,48.79945 C820.02954,48.79945 855.09178,115.50448 842.08939,154.36774 Z" id="Path" fill="#202020"></path>
                <polygon id="Path" fill="#3F3D56" points="773.053 182.962 784.463 150.614 819.92 117.734 786.253 145.539 791.384 130.994 816.282 106.954 792.741 127.145 792.741 127.145 801.969 100.985 825.955 83.239 803.42 96.871 819.823 48.73 796.784 112.017 797.803 109.429 789.751 78.647 795.846 114.397 784.48 143.259 784.696 142.464 774.564 109.515 783.716 145.199 782.295 148.808 782.242 148.852 782.157 149.159 753.32 222.383 758.533 224.127 772.038 185.84 800.751 162.904"></polygon>
                <path d="M571.99071,123.09662 C586.72894,161.33533 569.14271,183.44851 541.10095,194.25654 C513.05919,205.06457 485.18088,200.47469 470.44265,162.23598 C455.70442,123.99727 487.72908,55.78191 487.72908,55.78191 C487.72908,55.78191 557.25248,84.8579 571.99071,123.09662 Z" id="Path" fill="#222222"></path>
                <polygon id="Path" fill="#3F3D56" points="536.997 189.12 525.182 156.917 531.564 108.985 523.329 151.866 518.016 137.386 521.891 102.993 516.611 133.554 516.611 133.554 507.056 107.512 514.238 78.552 505.554 103.417 487.526 55.86 510.088 119.319 509.225 116.675 483.407 98.078 510.882 121.75 520.509 151.237 520.169 150.487 491.368 131.546 521.157 153.219 522.361 156.907 522.348 156.974 522.478 157.265 546.903 232.076 552.032 230.1 538.048 191.985 545.567 156.014"></polygon>
                <path d="M456.42495,448.00384 C453.05324,453.38223 448.67859,453.25574 444.73443,450.78315 C440.79027,448.31056 438.77018,444.42815 442.14189,439.0498 C445.5136,433.67145 456.94448,431.30626 456.94448,431.30626 C456.94448,431.30626 459.79666,442.62547 456.42495,448.00384 Z" id="Path" fill-opacity="0.334844843" fill="#64E8B0"></path>
                <path d="M858.55508,286.81137 C859.17902,293.12851 855.64144,295.70515 851.00887,296.1627 C846.3763,296.62025 842.403,294.78547 841.77906,288.46833 C841.15512,282.15119 848.74938,273.28633 848.74938,273.28633 C848.74938,273.28633 857.93108,280.49423 858.55508,286.81137 Z" id="Path" fill-opacity="0.334844843" fill="#64E8B0"></path>
                <path d="M438.48868,333.45726 C435.11697,338.83565 430.74232,338.70916 426.79817,336.23657 C422.85402,333.76398 420.83391,329.88162 424.20562,324.50322 C427.57733,319.12482 439.00821,316.75967 439.00821,316.75967 C439.00821,316.75967 441.86039,328.07884 438.48868,333.45726 Z" id="Path" fill-opacity="0.334844843" fill="#64E8B0"></path>
            </g>
        </g>
    </g>
</svg>