<svg xmlns="http://www.w3.org/2000/svg" xmlns:xlink="http://www.w3.org/1999/xlink" viewBox="0 0 432 288"><defs><style>.cls-1{fill:#001638;}.cls-2{fill:url(#linear-gradient);}.cls-3{fill:url(#linear-gradient-2);}.cls-4{fill:url(#linear-gradient-3);}.cls-5{fill:url(#linear-gradient-4);}.cls-6{fill:url(#linear-gradient-5);}.cls-7{fill:url(#linear-gradient-6);}.cls-8{fill:url(#linear-gradient-7);}.cls-9{opacity:0.4;}.cls-10{fill:url(#linear-gradient-8);}.cls-11{fill:url(#linear-gradient-9);}.cls-12{fill:url(#linear-gradient-10);}.cls-13{fill:url(#linear-gradient-11);}.cls-14{fill:url(#linear-gradient-12);}.cls-15{fill:url(#linear-gradient-13);}.cls-16{fill:url(#linear-gradient-14);}</style><linearGradient id="linear-gradient" x1="138.18" y1="16.06" x2="314.49" y2="200.31" gradientUnits="userSpaceOnUse"><stop offset="0.24" stop-color="#fd2e54"/><stop offset="1" stop-color="#001638"/></linearGradient><linearGradient id="linear-gradient-2" x1="94.71" y1="57.65" x2="271.02" y2="241.9" xlink:href="#linear-gradient"/><linearGradient id="linear-gradient-3" x1="93.15" y1="59.14" x2="269.47" y2="243.39" xlink:href="#linear-gradient"/><linearGradient id="linear-gradient-4" x1="92.86" y1="59.42" x2="269.17" y2="243.68" xlink:href="#linear-gradient"/><linearGradient id="linear-gradient-5" x1="84.88" y1="67.06" x2="261.19" y2="251.31" xlink:href="#linear-gradient"/><linearGradient id="linear-gradient-6" x1="77.14" y1="74.46" x2="253.46" y2="258.71" xlink:href="#linear-gradient"/><linearGradient id="linear-gradient-7" x1="70.08" y1="81.22" x2="246.39" y2="265.47" xlink:href="#linear-gradient"/><linearGradient id="linear-gradient-8" x1="135.4" y1="18.71" x2="311.71" y2="202.97" xlink:href="#linear-gradient"/><linearGradient id="linear-gradient-9" x1="108.15" y1="44.79" x2="284.46" y2="229.04" xlink:href="#linear-gradient"/><linearGradient id="linear-gradient-10" x1="73.98" y1="77.49" x2="250.29" y2="261.74" xlink:href="#linear-gradient"/><linearGradient id="linear-gradient-11" x1="67.6" y1="83.59" x2="243.92" y2="267.84" xlink:href="#linear-gradient"/><linearGradient id="linear-gradient-12" x1="70.39" y1="80.92" x2="246.7" y2="265.17" xlink:href="#linear-gradient"/><linearGradient id="linear-gradient-13" x1="67.78" y1="83.42" x2="244.09" y2="267.67" xlink:href="#linear-gradient"/><linearGradient id="linear-gradient-14" x1="60.35" y1="90.53" x2="236.67" y2="274.78" xlink:href="#linear-gradient"/></defs><title>bottomAsset 1</title><g id="Layer_2" data-name="Layer 2"><g id="Layer_1-2" data-name="Layer 1"><rect class="cls-1" width="432" height="288"/><path class="cls-2" d="M383.3,45.92c-2.73-11.14-5.31-22.49-7.67-33.73a72.84,72.84,0,0,1-1.11-10L374.37,0h-.9c0,.76.11,1.52.16,2.27a73.9,73.9,0,0,0,1.12,10.1c2.36,11.24,4.95,22.6,7.67,33.75.75,3.05,2.85,7.61,5.27,12.89,5.6,12.18,13.27,28.87,9,38.3a11.83,11.83,0,0,1-7.42,6.31c-4.83,1.62-10.79-.11-16.56-1.79-3.78-1.1-7.34-2.14-10.59-2.28-14.9-.61-27.52.7-38.57,4-23,6.83-46.17,27.85-43.93,53.35.48,5.52,2.14,11.09,3.73,16.48,2.84,9.57,5.52,18.61,2.26,27.47-3.53,9.59-13,15.6-23.23,21.42L146.85,288h1.77l114.25-65c10.37-5.9,20-12,23.61-21.87,3.36-9.12.52-18.72-2.23-28-1.59-5.34-3.23-10.87-3.71-16.31-2.19-25.06,20.67-45.72,43.3-52.45,11-3.26,23.48-4.55,38.27-4a47.25,47.25,0,0,1,10.37,2.24c5.9,1.72,12,3.5,17.11,1.78a12.63,12.63,0,0,0,8-6.78c4.4-9.78-3.36-26.66-9-39C386.1,53.42,384,48.89,383.3,45.92Z"/><path class="cls-3" d="M350.72,47.05c-2.27-8.39-4.51-17.19-6.84-26.91a71.19,71.19,0,0,1-1.25-8c-.49-4.13-1-8.35-2.43-12.13h-1c1.51,3.77,2,8,2.51,12.23a71.21,71.21,0,0,0,1.27,8.1c2.33,9.73,4.57,18.54,6.84,26.94.72,2.68,2.53,6.47,4.62,10.87,5.89,12.36,13.95,29.29,3.91,35-3.13,1.79-7.08,1.38-11.26.93-1-.1-1.94-.2-2.9-.27a26.86,26.86,0,0,0-4.55,0c-8.42.71-20,1.7-30.4,4.67a64.89,64.89,0,0,0-11.95,4.65c-15.72,8-26,20.13-27.42,32.37a54.28,54.28,0,0,0,.18,11.12c.54,6.5,1.06,12.63-2.4,18.7-3.94,6.89-12.28,11.38-19.78,15-14,6.83-32,16.17-47.93,27.91a148.35,148.35,0,0,0-11.82,10.08c-2.88,2.65-5.86,5.39-9.08,8a93.79,93.79,0,0,1-9.56,6.49c-2.77,1.72-5.62,3.49-8.18,5.42a73.21,73.21,0,0,0-6.5,5.68c-4.17,4-8.11,7.69-14.49,9.83a174.23,174.23,0,0,0-17.67,7.07c-4.52,2.07-9,4.37-13.79,6.81L106.19,269c-9.24,4.71-16.86,7.17-24,7.73s-14.65-.75-21.59-2.27L59,274.08c-6.4-1.43-12.44-2.79-18.56-2.25a57.78,57.78,0,0,0-11.25,2.49c-4.47,1.3-9.11,2.65-14.07,2.6A24.35,24.35,0,0,1,0,271.79v1.09a25,25,0,0,0,15.12,4.9c5.13.05,9.81-1.31,14.34-2.64a57.65,57.65,0,0,1,11.07-2.45c6-.53,11.95.81,18.28,2.23l1.61.36c7,1.54,14.52,2.88,21.86,2.29s15-3.06,24.33-7.82l2.69-1.38c4.76-2.43,9.26-4.73,13.75-6.79a175.68,175.68,0,0,1,17.58-7c6.57-2.21,10.58-6,14.83-10a74.16,74.16,0,0,1,6.42-5.62c2.53-1.91,5.37-3.67,8.11-5.37a94.73,94.73,0,0,0,9.66-6.56c3.24-2.6,6.23-5.35,9.12-8a146.07,146.07,0,0,1,11.75-10c15.84-11.69,33.86-21,47.79-27.82,7.62-3.72,16.09-8.29,20.16-15.39,3.59-6.3,3-12.85,2.5-19.19a54.1,54.1,0,0,1-.18-10.95c1.41-12,11.49-23.82,26.95-31.71a64.3,64.3,0,0,1,11.79-4.59c10.35-2.94,21.83-3.92,30.22-4.63a26.14,26.14,0,0,1,4.4,0c1,.07,1.91.17,2.87.27,4.34.46,8.43.89,11.82-1,10.73-6.15,2.47-23.48-3.55-36.14A76.78,76.78,0,0,1,350.72,47.05Z"/><path class="cls-4" d="M318.13,48.18c-1.8-5.82-3.65-12-6-20.1-.57-1.93-1-3.93-1.41-6-1-4.82-2-9.81-5-13.81a25.52,25.52,0,0,0-8.52-7A16.65,16.65,0,0,0,294.33,0h-2.67c.56.21,1.11.4,1.65.58A18.31,18.31,0,0,1,296.8,2,24.63,24.63,0,0,1,305,8.72c2.84,3.85,3.85,8.74,4.82,13.48.42,2,.85,4.15,1.43,6.11,2.33,8.09,4.18,14.29,6,20.12a72.23,72.23,0,0,0,4.12,9.13c4.4,8.75,9.87,19.66,6,25.28-1.65,2.41-4,3.26-7.29,4.29l-.12,0c-.9.28-1.86.57-2.84.9a125.94,125.94,0,0,1-12.56,3.12c-3.18.68-6.47,1.38-9.61,2.21a72.56,72.56,0,0,0-9.15,3c-12,4.92-21.09,11.18-25.6,17.63a45.85,45.85,0,0,0-3.35,5.8c-1.75,3.42-3.41,6.65-7.09,9.94-4.09,3.64-10.29,6.34-16.37,8.71C214.15,146,199,155,188.35,165.36c-3.69,3.61-6.24,7.72-8.7,11.69a72.11,72.11,0,0,1-6.45,9.26c-2.31,2.72-5.44,4.84-8.46,6.9a49.16,49.16,0,0,0-7.32,5.69,30.7,30.7,0,0,0-4.75,6.9c-2.52,4.51-4.9,8.78-11.94,9.75a93.86,93.86,0,0,0-17.67,4.06,85.25,85.25,0,0,0-15.87,7.49c-7.91,4.7-14.63,8.22-21.71,10.14a47.3,47.3,0,0,1-20.4,1c-3.32-.55-6.62-1.39-9.8-2.21-2.94-.76-6-1.54-8.94-2-8.64-1.49-16.56-1-24.59-.31-2.13.19-4.1.41-6,.62C9.83,235,5.07,235.5,0,234.25v.88c5.21,1.23,10.11.68,15.86,0,1.89-.21,3.85-.44,6-.62,8-.68,15.82-1.17,24.35.3,2.92.5,5.81,1.25,8.87,2s6.52,1.68,9.88,2.23a48.37,48.37,0,0,0,20.8-1c7.17-1.95,14-5.5,21.93-10.23a83.73,83.73,0,0,1,15.7-7.41,93,93,0,0,1,17.5-4c7.48-1,10-5.49,12.6-10.2a30,30,0,0,1,4.61-6.72,48.05,48.05,0,0,1,7.19-5.57,42.46,42.46,0,0,0,8.63-7.06,73.24,73.24,0,0,0,6.53-9.37c2.43-3.93,5-8,8.57-11.53,10.55-10.26,25.61-19.24,44.75-26.7,6.17-2.41,12.45-5.15,16.65-8.88,3.8-3.4,5.57-6.86,7.28-10.2a46,46,0,0,1,3.29-5.7c4.35-6.22,13.54-12.53,25.21-17.32a73,73,0,0,1,9-2.93c3.12-.82,6.4-1.52,9.57-2.2a123.62,123.62,0,0,0,12.65-3.15c1-.32,1.92-.61,2.83-.89l.11,0c3.41-1,6-2,7.77-4.63,4.16-6-1.43-17.18-5.93-26.14A70.53,70.53,0,0,1,318.13,48.18Z"/><path class="cls-5" d="M285.55,49.3q-4.49-11.64-9-23.23-3.24-8.28-6.46-16.55A59.86,59.86,0,0,0,265.68,0h-1.05a56.9,56.9,0,0,1,4.58,9.82q3.23,8.28,6.46,16.55,4.53,11.61,9,23.23a61.35,61.35,0,0,0,4.7,8.64c4.61,7.57,9.82,16.14,6.49,22.38-2.84,5.3-13.17,7.34-19.34,8.55l-2.2.44c-8.46,1.78-17.38,2.44-26,3.08-9.8.72-19.92,1.47-29.43,3.86-17.69,4.46-33.07,13.9-42.19,25.91-3.05,4-4.34,8.74-5.58,13.31a46.36,46.36,0,0,1-3.82,10.56c-1.7,3-4.58,5.21-7.36,7.3a29.15,29.15,0,0,0-6.45,6c-1.72,2.42-2.3,5.38-2.87,8.25-1,5.25-1.94,9.79-9.55,9.55-12.08-.37-21.52,0-32.91,7.84l-3.72,2.6c-10.87,7.63-22.1,15.53-34.94,14.23-6.1-.61-11.94-3.36-17.59-6-7.54-3.53-15.33-7.19-23.58-5.59-4.53.87-8.75,3.29-12.83,5.62-5.23,3-10.2,5.84-15.54,5.47v.86c5.63.34,10.89-2.66,16-5.59,4-2.29,8.16-4.67,12.55-5.52,8-1.54,15.26,1.9,23,5.53,5.72,2.68,11.63,5.46,17.88,6.09,13.19,1.33,24.57-6.67,35.57-14.4l3.71-2.59c11.17-7.7,20.45-8,32.36-7.68,8.38.27,9.45-5.08,10.46-10.25.55-2.78,1.11-5.65,2.73-7.92a27.69,27.69,0,0,1,6.27-5.77c2.85-2.15,5.8-4.37,7.59-7.57A46.82,46.82,0,0,0,172,136c1.23-4.49,2.49-9.13,5.44-13,9-11.85,24.2-21.18,41.69-25.58,9.43-2.37,19.52-3.12,29.28-3.84,8.65-.64,17.6-1.3,26.13-3.1l2.18-.43c6.74-1.33,16.92-3.33,19.95-9,3.57-6.66-1.78-15.46-6.5-23.22A59.78,59.78,0,0,1,285.55,49.3Z"/><path class="cls-6" d="M225.88,24.61c-1.25-3.14-2.72-6.48-4.48-10.23-1.85-4-4.12-8.47-7.61-11.73a18.52,18.52,0,0,0-2-1.66c-.51-.35-1-.68-1.58-1h-1.8a27,27,0,0,1,2.85,1.69,18,18,0,0,1,1.95,1.58c3.38,3.16,5.59,7.57,7.41,11.46,1.76,3.74,3.22,7.07,4.46,10.19l.26.62c3,7.54,6.14,15.33,6.15,22.45a86.47,86.47,0,0,1-1.12,13.46c-.43,3.17-1.27,6.81-4.21,9.76-1.9,1.91-4.94,3.46-8.78,4.5-2.65.7-5.42,1.29-8.1,1.85-2.36.5-4.6,1-6.5,1.47-3.81,1-7.54,2-11.14,3.22a24.34,24.34,0,0,0-8.25,4.8l-1.07.84a20.07,20.07,0,0,1-3.35,2c-.44.22-.86.44-1.3.68a9.91,9.91,0,0,0-2.11,1.82,22.55,22.55,0,0,1-3.22,2.85c-2.62,1.89-5.66,3.82-8.87,5.85-7.47,4.74-15.94,10.1-22.16,16.94a29.2,29.2,0,0,0-4.23,6.31c-.49.92-.94,1.85-1.39,2.77a36.29,36.29,0,0,1-4.32,7.29c-1.65,2-4.12,3.38-6.5,4.7a26.11,26.11,0,0,0-5.43,3.59,14.81,14.81,0,0,0-3.11,5.08c-1.43,3.28-2.65,6.11-8.46,5.7-9.6-.7-17.68-.82-26.89,4.2-1.83,1-3.73,2.08-5.56,3.13-4,2.31-8.21,4.69-12.45,6.62a35.3,35.3,0,0,1-13.37,3.63c-4.6.18-9-.94-13.22-2-5.79-1.48-11.78-3-18.2-1.13a27.45,27.45,0,0,0-4.9,2c-1.5.76-3,1.62-4.45,2.45A44.53,44.53,0,0,1,0,176.64v.89a43.69,43.69,0,0,0,9.25-4.41c1.44-.82,2.93-1.68,4.4-2.43a27,27,0,0,1,4.75-1.95c6.18-1.81,11.78-.38,17.71,1.13,4.31,1.1,8.76,2.23,13.49,2,4.17-.16,8.53-1.34,13.72-3.71,4.27-1.94,8.46-4.34,12.52-6.66,1.83-1,3.72-2.12,5.55-3.12,9-4.9,16.93-4.77,26.38-4.09,6.44.46,7.92-2.94,9.34-6.22a14.26,14.26,0,0,1,2.92-4.81,25.47,25.47,0,0,1,5.24-3.46c2.46-1.36,5-2.76,6.76-4.9a37.29,37.29,0,0,0,4.43-7.47c.44-.91.89-1.83,1.38-2.74a27.93,27.93,0,0,1,4.11-6.13c6.14-6.75,14.55-12.08,22-16.78,3.23-2,6.28-4,8.92-5.88a24.34,24.34,0,0,0,3.33-3,8.88,8.88,0,0,1,1.91-1.66c.43-.24.84-.45,1.27-.66a21.67,21.67,0,0,0,3.48-2.1c.34-.25.7-.54,1.09-.86a23.89,23.89,0,0,1,8-4.64c3.58-1.18,7.29-2.19,11.09-3.2,1.88-.5,4.1-1,6.45-1.47,2.69-.56,5.47-1.15,8.15-1.86,4-1.08,7.17-2.71,9.18-4.73,3.13-3.14,4-6.94,4.46-10.25A88.82,88.82,0,0,0,232.35,48c0-7.28-3.17-15.15-6.22-22.76Z"/><path class="cls-7" d="M172.73,19.22a42.07,42.07,0,0,0-7-9.08c-.54-.5-1.09-1-1.63-1.4-1-.8-2.12-1.51-3.17-2.2a36.75,36.75,0,0,1-3.78-2.71A22.91,22.91,0,0,1,153.67,0h-1.08a23.86,23.86,0,0,0,4,4.48,36.53,36.53,0,0,0,3.87,2.77c1,.68,2.11,1.39,3.1,2.16.53.41,1.06.87,1.57,1.35A40.83,40.83,0,0,1,172,19.65a61,61,0,0,1,4.12,8c2.3,5.53,4.54,13.26,2.19,18.68-1.55,3.58-4.41,4.76-7.43,6A24.17,24.17,0,0,0,166,54.79c-1.08.75-2.14,1.59-3.25,2.48a51,51,0,0,1-6.43,4.57,30.27,30.27,0,0,1-9.91,3.41,116.63,116.63,0,0,0-15.33,3.21A59.73,59.73,0,0,0,120,73.15c-4.67,2.58-5.25,7.79-3.87,10.4,1.09,2,2.83,2.91,4.51,3.74l1.17.59c2.67,1.47,3.94,3.51,3.88,6.23-3.59,5.88-13,13.93-19.82,19.49-1.29,1.05-2.39,2.1-3.46,3.1l-.86.82a35.63,35.63,0,0,1-6.11,4.94,23.13,23.13,0,0,1-6,2.1,32.52,32.52,0,0,0-4.06,1.23,14.58,14.58,0,0,0-3.19,1.87c-1.88,1.35-3.51,2.51-7.61,1.91-7.23-1.07-13.79-1.76-20.84.55a132,132,0,0,0-14.46,5.93,74.52,74.52,0,0,1-9.74,4,61.37,61.37,0,0,1-8.68,1.8c-4.09.64-8.33,1.3-13,3.51-1.26.6-2.48,1.3-3.5,1.9l-1.51.89c-1,.56-1.9,1.13-2.87,1.67v1c1.13-.62,2.24-1.28,3.35-1.94L4.84,148c1-.59,2.21-1.28,3.43-1.86,4.53-2.16,8.51-2.78,12.73-3.44a62.77,62.77,0,0,0,8.8-1.82,76,76,0,0,0,9.86-4.07A129.4,129.4,0,0,1,54,130.94c6.87-2.26,13-1.61,20.42-.52,4.46.66,6.31-.66,8.28-2.07a14.22,14.22,0,0,1,3-1.77,33.26,33.26,0,0,1,4-1.18,24,24,0,0,0,6.21-2.21,36,36,0,0,0,6.26-5l.87-.82c1.06-1,2.15-2,3.41-3.06,6.88-5.63,16.45-13.81,20.08-19.82l.05-.09v-.11c.1-3.12-1.32-5.45-4.33-7.11L121,86.52c-1.63-.8-3.17-1.56-4.12-3.36-1.23-2.31-.68-7,3.52-9.26a58.3,58.3,0,0,1,11-4.62,114.92,114.92,0,0,1,15.2-3.18,31.09,31.09,0,0,0,10.21-3.52,50.26,50.26,0,0,0,6.55-4.64c1.1-.88,2.14-1.71,3.2-2.45a23.51,23.51,0,0,1,4.62-2.32c3.06-1.26,6.22-2.56,7.91-6.47,2.46-5.69.17-13.65-2.18-19.33A63.32,63.32,0,0,0,172.73,19.22Z"/><path class="cls-8" d="M117.74,17.62C110.44,10.79,102.17,3,91.55.18c-.24-.07-.48-.12-.72-.18H86.31a45.14,45.14,0,0,1,5,1c10.4,2.81,18.58,10.47,25.8,17.23,3.69,3.46,7.87,7.37,10,12.23,1.87,4.27,2.05,10.57-2,14.3-3.81,3.54-9.24,3.42-15,3.3a52,52,0,0,0-8.39.27,72,72,0,0,0-12.05,3.15C85,53,80.63,54.44,75.56,54.8c-11.85.84-20.25,3.69-27.22,9.25a7.26,7.26,0,0,0-2.67,5.88,11.8,11.8,0,0,0,4.47,8.89c3.69,2.88,8.42,4,13,5,1,.22,1.93.43,2.88.67C73.12,86.23,77.44,89,79.22,93a9.85,9.85,0,0,1-.72,9,17.49,17.49,0,0,1-12,8.29c-7.61,1.27-15.25-1.33-22.65-3.83l-2.5-.84c-7.69-2.55-17.57-5-25.74-1-5,2.42-8.43,6.8-11.75,11-1.24,1.58-2.51,3.19-3.86,4.7v1.3c1.63-1.75,3.12-3.63,4.57-5.48C8,111.88,11.21,107.78,16,105.44c7.88-3.83,17.53-1.45,25.05,1l2.49.83c7.51,2.55,15.27,5.17,23.11,3.87a18.44,18.44,0,0,0,12.63-8.73A10.7,10.7,0,0,0,80,92.69c-1.9-4.27-6.41-7.22-13.79-9L63.34,83c-4.47-1-9.1-2.07-12.63-4.82a10.89,10.89,0,0,1-4.14-8.22,6.42,6.42,0,0,1,2.34-5.22c6.82-5.43,15.06-8.22,26.72-9,5.18-.37,9.85-1.88,14.36-3.35a71.49,71.49,0,0,1,11.9-3.11,50,50,0,0,1,8.24-.27c5.68.12,11.55.25,15.63-3.54,4.34-4,4.22-10.57,2.17-15.25C125.73,25.11,121.49,21.13,117.74,17.62Z"/><g class="cls-9"><path class="cls-10" d="M395.58,0a161.51,161.51,0,0,1-6,29.94c-7.79,24.93-22.73,44-42.07,53.69-12.21,6.13-26.11,8.48-39.55,10.75-6.44,1.09-13.1,2.22-19.52,3.75-24.6,5.86-41.66,19.13-45.62,35.49-1.48,6.09-1.26,12.71-1.05,19.1.35,10.44.67,20.31-5.87,27.81C230,187.29,220,190,210.37,192.64c-12.43,3.4-24.17,6.61-26.34,18-1.19,6.28,1.69,12.22,4.47,18,2.21,4.58,4.5,9.31,4.78,14.22,1,16.82-19.54,26.21-37.38,29.14l-.37.06c-14.65,2.41-32.35,5.32-41.43,16h1.18c9-10,26.17-12.78,40.4-15.12l.37-.06c18.2-3,39.12-12.65,38.13-30-.29-5.09-2.62-9.89-4.87-14.54-2.85-5.88-5.54-11.44-4.4-17.44,2.07-10.88,13.55-14,25.7-17.34,9.77-2.66,19.87-5.42,25.94-12.38,6.76-7.76,6.43-17.79,6.07-28.4-.2-6.34-.42-12.89,1-18.87,3.89-16,20.7-29.07,45-34.85,6.39-1.52,13-2.65,19.46-3.74,13.5-2.28,27.47-4.65,39.81-10.83,19.55-9.8,34.65-29.06,42.5-54.21A162.08,162.08,0,0,0,396.48,0Z"/><path class="cls-11" d="M327.67,0h-.89c.09,1.46.21,2.9.34,4.3.23,2.51.48,5.11.47,7.73a64.57,64.57,0,0,1-5.8,27.3c-7.94,17.12-19,31.07-32.11,40.36-1.31.93-2.64,1.82-3.95,2.65-8.64,5.41-17.69,8.86-26.44,12.19-5,1.91-10.2,3.89-15.12,6.18a80.69,80.69,0,0,0-9.46,5.2c-11.73,7.48-19,17-21.15,27.58-1,5-.87,10.4-.75,15.59.21,8.53.4,16.58-4,23.08-3.91,5.81-10.48,9-16.83,12.13-5.91,2.89-11.5,5.62-14.94,10.27a15.87,15.87,0,0,0-3,7c-.77,4.77.82,9.33,2.36,13.74s2.92,8.33,2.33,12.54c-1.69,12.12-16.37,15.28-25,16.09a113.61,113.61,0,0,1-17.69-.13,72.23,72.23,0,0,0-16.62.54C105.86,246.66,94.84,254,88.46,265a71.53,71.53,0,0,0-5.2,12,66.63,66.63,0,0,1-4,9.58c-.25.45-.51.89-.78,1.33h1c.18-.31.36-.61.53-.92a69.62,69.62,0,0,0,4-9.7,71.3,71.3,0,0,1,5.13-11.92c6.24-10.8,17.05-18,30.42-20.26a72,72,0,0,1,16.41-.53,114.27,114.27,0,0,0,17.84.13c8.86-.83,24-4.13,25.77-16.83.62-4.41-.9-8.75-2.37-12.94s-3.06-8.77-2.32-13.33a15.1,15.1,0,0,1,2.8-6.64c3.31-4.47,8.8-7.16,14.62-10,6.46-3.16,13.13-6.42,17.17-12.43,4.54-6.73,4.33-15.29,4.13-23.57-.12-5.15-.25-10.48.73-15.41,2.06-10.32,9.24-19.67,20.77-27a80.24,80.24,0,0,1,9.35-5.13c4.89-2.28,9.83-4.16,15.06-6.15,8.79-3.35,17.89-6.81,26.6-12.28,1.32-.83,2.67-1.73,4-2.67,13.2-9.38,24.4-23.46,32.39-40.71A65.43,65.43,0,0,0,328.49,12c0-2.66-.24-5.27-.48-7.8C327.88,2.84,327.77,1.43,327.67,0Z"/><path class="cls-12" d="M259.32,12.62a49.72,49.72,0,0,1-1.62-7.31,21.4,21.4,0,0,1,0-5.31h-.9a22.23,22.23,0,0,0,0,5.41,51.81,51.81,0,0,0,1.64,7.43,48.42,48.42,0,0,1,1.63,7.42c1.25,10.82-.79,20.39-6,28.46-7.83,12-18.71,22.3-27.31,29.91L224,81.06l-4.8,4.16c-7.3,6.32-13.61,11.77-19.29,18.15-1.66,1.87-3.27,3.85-4.81,5.88-6.14,8.14-9.65,16-10.73,24.12a86.8,86.8,0,0,0-.44,12.08c.06,6.61.13,12.85-2.11,18.38-2,4.87-5.2,8.52-8.33,12s-5.94,6.68-7.75,11a20.7,20.7,0,0,0-1.53,5.65,34.67,34.67,0,0,0,.46,9.19c.55,3.94,1.07,7.66-.32,11.17-4.11,10.4-18.81,10.9-30.15,8.16-3.48-.84-7.08-2-10.57-3.11-2.37-.76-4.82-1.54-7.25-2.24a43.67,43.67,0,0,0-17.25-1.91C87.25,215.06,77,222,66.79,235.62c-1.39,1.86-2.71,3.74-4,5.56-3.64,5.21-7.09,10.12-11.59,13.6A30.66,30.66,0,0,1,47,257.49a54.24,54.24,0,0,1-10.23,4c-14,4.3-26.27,6.73-36.77,7.3v.86c10.6-.56,23-3,37-7.33a55.64,55.64,0,0,0,10.41-4.12,33.31,33.31,0,0,0,4.32-2.78c4.61-3.57,8.09-8.53,11.77-13.79,1.28-1.82,2.59-3.69,4-5.55,10-13.39,20.1-20.23,31.68-21.51a42.68,42.68,0,0,1,16.9,1.88c2.41.69,4.86,1.47,7.22,2.23,3.5,1.12,7.12,2.28,10.63,3.13,11.7,2.82,26.89,2.24,31.21-8.69,1.47-3.71.93-7.54.37-11.6a34,34,0,0,1-.46-9,19.75,19.75,0,0,1,1.47-5.42c1.76-4.15,4.59-7.35,7.6-10.73,3.18-3.58,6.47-7.29,8.48-12.3,2.3-5.68,2.24-12.3,2.17-18.7a86.45,86.45,0,0,1,.44-12c1.06-7.94,4.51-15.7,10.56-23.72,1.53-2,3.13-4,4.77-5.83,5.64-6.33,11.93-11.77,19.21-18.07q2.34-2,4.8-4.16l2.76-2.43c8.65-7.65,19.58-18,27.47-30.1,5.36-8.23,7.44-18,6.17-29A49.2,49.2,0,0,0,259.32,12.62Z"/><path class="cls-13" d="M190.65,20.62a37.66,37.66,0,0,1-2.8-7.74C187,8.68,187.78,4.71,190,2a13,13,0,0,1,2.12-2h-1.39a12.41,12.41,0,0,0-1.43,1.47c-2.37,2.9-3.22,7.12-2.32,11.58A38.81,38.81,0,0,0,189.82,21a39.09,39.09,0,0,1,2.76,7.52c2.69,12.41.59,22.38-6.26,29.61a75.31,75.31,0,0,1-10.18,8.48c-4.43,3.27-9,6.64-12.39,11-7.29,9.45-8.07,21.51-8.29,35.14l-1.09,66.45c-.11,7.3-.53,13.74-4.48,18.65-7.77,9.69-23.8,6.94-35.4.28-2.27-1.3-4.57-2.73-6.8-4.12-9-5.63-18.37-11.45-29-10.85-13.12.73-21.8,10.21-31,20.25C40.47,211.3,33,219.47,23.15,223c-6,2.14-12.57,2.37-18.9,2.59-1.39,0-2.81.13-4.25.23v.86c1.45-.09,2.88-.17,4.28-.22,6.4-.23,13-.47,19.18-2.65,10-3.56,17.61-11.82,24.92-19.8,9.06-9.9,17.62-19.25,30.36-20,10.35-.58,19.55,5.16,28.46,10.71,2.24,1.4,4.55,2.84,6.83,4.14,11.93,6.85,28.46,9.61,36.57-.49,4.45-5.54,4.58-13.41,4.67-19.16l1.08-66.46c.22-13.48,1-25.39,8.12-34.64,3.31-4.29,7.84-7.63,12.21-10.85A76.84,76.84,0,0,0,187,58.68C194,51.22,196.21,41,193.45,28.3A39.72,39.72,0,0,0,190.65,20.62Z"/><path class="cls-14" d="M160.25,0a29.77,29.77,0,0,1-7.64,9.25c-.3.25-.61.49-.93.73a16.19,16.19,0,0,0-4,4,9.91,9.91,0,0,0-1.37,3.73,15,15,0,0,0,.15,5.23,35,35,0,0,0,1.87,5.85,32.74,32.74,0,0,1,1.91,6.1c1.62,9.45-.24,17-5.55,22.52a58.21,58.21,0,0,1-8.3,6.7,51.94,51.94,0,0,0-9.08,7.56c-6,6.85-7.55,15.62-8.66,24.75-.21,1.72-.41,3.44-.6,5.18-1,8.74-1.64,17.9-2.29,26.75-.41,5.65-.84,11.49-1.34,17.15-.39,4.36-.88,9.79-4.28,13.52-7.25,8-20.78,3.78-26.27,1.62-1.08-.43-2.17-.89-3.22-1.38s-2.13-1-3.2-1.5c-6.3-3-12.82-6.07-19-6.35a21.43,21.43,0,0,0-6.47.67,25.07,25.07,0,0,0-8,3.8,124,124,0,0,0-11.81,9.63c-5.33,4.72-10.85,9.59-16.79,12.78a33,33,0,0,1-9,3.39,37.78,37.78,0,0,1-6.42.72v.87a38.12,38.12,0,0,0,6.61-.75A34,34,0,0,0,15.82,179c6-3.24,11.58-8.15,17-12.9a123.09,123.09,0,0,1,11.73-9.57,24.57,24.57,0,0,1,7.68-3.67,20.6,20.6,0,0,1,6.2-.63c6,.26,12.41,3.31,18.63,6.25L80.22,160c1.07.49,2.17,1,3.28,1.4,5.66,2.23,19.65,6.53,27.27-1.85,3.59-3.95,4.1-9.53,4.5-14,.5-5.66.93-11.51,1.35-17.16.65-8.84,1.32-18,2.28-26.72.19-1.73.39-3.46.6-5.17,1.1-9,2.56-17.62,8.45-24.29a51.25,51.25,0,0,1,8.93-7.42A58.48,58.48,0,0,0,145.3,58c5.51-5.7,7.46-13.53,5.78-23.25a33.26,33.26,0,0,0-2-6.26,34.86,34.86,0,0,1-1.83-5.71,14,14,0,0,1-.14-4.93,9.17,9.17,0,0,1,1.24-3.42,15.72,15.72,0,0,1,3.84-3.75l.95-.73A30.87,30.87,0,0,0,161.25,0Z"/><path class="cls-15" d="M108.23,23.89c.14-.23.28-.46.41-.69,2.73-4.75,3.52-10.95,2.28-17.92-.24-1.31-.55-2.63-.92-3.93-.13-.46-.29-.9-.43-1.35h-.94c.17.52.35,1.05.5,1.58A37.68,37.68,0,0,1,110,5.43c1.2,6.77.45,12.78-2.18,17.35-.13.23-.27.45-.41.68a14.33,14.33,0,0,0-1.48,3,10.5,10.5,0,0,0-.42,2.64,16.55,16.55,0,0,0,.31,3.63c.23,1.2.56,2.37.88,3.51a27,27,0,0,1,1.08,4.94c.57,6.48-1,11.68-4.85,15.45a41.33,41.33,0,0,1-6.69,5,51,51,0,0,0-5.48,3.93C86,69.86,83.61,75,81.79,80c-.39,1.07-.76,2.14-1.1,3.18a147.54,147.54,0,0,0-3.93,17.1c-.72,3.81-1.46,7.74-2.37,11.44-.78,3.23-1.69,6.3-4.07,8.41-5.49,4.87-14.59,2.91-21,1l-2.65-.8c-5.89-1.79-12.6-3.54-17.64-1.61a14.67,14.67,0,0,0-3.94,2.3,36.23,36.23,0,0,0-3.93,3.76l-.67.71A51.73,51.73,0,0,1,0,138.78v.9a52.39,52.39,0,0,0,21.19-13.61l.68-.71a36.21,36.21,0,0,1,3.82-3.67,13.93,13.93,0,0,1,3.71-2.17c4.77-1.83,11.3-.11,17,1.64l2.65.79c6.58,2,16,4,21.84-1.19,2.57-2.28,3.52-5.49,4.34-8.86.9-3.71,1.65-7.66,2.37-11.47a146,146,0,0,1,3.91-17q.49-1.56,1.08-3.15c1.78-4.85,4.07-9.9,8.77-14a49.16,49.16,0,0,1,5.39-3.87,42.08,42.08,0,0,0,6.83-5.16c4-4,5.69-9.38,5.09-16.12a28.35,28.35,0,0,0-1.1-5.1c-.32-1.12-.65-2.27-.87-3.44a15.47,15.47,0,0,1-.29-3.44,9.23,9.23,0,0,1,.38-2.42A12.9,12.9,0,0,1,108.23,23.89Z"/><path class="cls-16" d="M65.71,40.44c-1.72-5.9-6-10.75-9.45-14.31-6.76-6.89-13-10.93-19.51-12.7-7-1.9-16.56-1-22.1,5.41-.48.54-.93,1.13-1.36,1.7a14.12,14.12,0,0,1-3.07,3.27c-3,2.1-7.2,1.43-10.22-.19v1c3.24,1.59,7.53,2.14,10.74-.08A14.74,14.74,0,0,0,14,21.05c.42-.56.85-1.13,1.31-1.66,5.29-6.08,14.45-7,21.18-5.13C42.9,16,49,20,55.61,26.72c3.42,3.49,7.57,8.23,9.24,14s.31,11.81-3.54,15.26c-2.44,2.19-5.72,3.31-8.9,4.4S46,62.52,43.49,64.65s-4.15,5.06-5.72,7.9c-1.94,3.53-3.78,6.86-7.18,8.68-4,2.15-8.9,1.43-13.62.73-.72-.11-1.42-.22-2.13-.31C11.49,81.2,3.48,80.74,0,85.76v1.82a6.87,6.87,0,0,1,.47-.94c3-5.06,11-4.58,14.25-4.14l2.11.31c4.88.72,9.92,1.47,14.2-.82,3.63-1.95,5.61-5.55,7.54-9,1.53-2.78,3.11-5.65,5.51-7.66s5.58-3.1,8.63-4.15C56,60,59.35,58.88,61.92,56.58,66,52.91,67.51,46.57,65.71,40.44Z"/></g></g></g></svg>