<?xml version="1.0" encoding="UTF-8"?>
<svg width="966px" height="801px" viewBox="0 0 966 801" version="1.1" xmlns="http://www.w3.org/2000/svg" xmlns:xlink="http://www.w3.org/1999/xlink">
    <!-- Generator: Sketch 55.2 (78181) - https://sketchapp.com -->
    <title>events</title>
    <desc>Created with Sketch.</desc>
    <defs>
        <linearGradient x1="50.0174946%" y1="100.001816%" x2="50.0174946%" y2="-0.00112839836%" id="linearGradient-1">
            <stop stop-color="#808080" stop-opacity="0.25" offset="0%"></stop>
            <stop stop-color="#808080" stop-opacity="0.12" offset="54%"></stop>
            <stop stop-color="#808080" stop-opacity="0.1" offset="100%"></stop>
        </linearGradient>
    </defs>
    <g id="Page-1" stroke="none" stroke-width="1" fill="none" fill-rule="evenodd">
        <g id="Artboard-Copy" transform="translate(-826.000000, -498.000000)">
            <g id="events" transform="translate(825.000000, 498.000000)">
                <path d="M902.88,442.5 C865.79,502.5 872.74,584.24 889.03,648.69 C894.48,670.27 900.76,693.05 896.1,717.2 C890.4,746.73 869.62,769.92 848.59,783.2 C810.25,807.35 766.47,806.68 734.59,781.43 C707.06,759.62 688.93,721.58 660.82,700.94 C613.82,666.39 549.28,687.33 493.24,719.62 C453.61,742.41 409.99,771.41 373.36,754.99 C347.59,743.46 331.52,710.93 324.02,675.53 C320.4,658.44 318.21,639.77 309.91,626.75 C304.97,619.01 298.18,613.83 291.14,609.58 C226.89,570.84 139.96,603.23 78,559.36 C36.15,529.74 12.36,468.56 4.54,403.14 C-3.28,337.72 3.15,267.72 11.2,198.8 C16.93,149.8 24.68,97.38 50.4,57.53 C77.61,15.38 120.5,-3.47 157.78,0.53 C195.06,4.53 227.43,28.15 255.33,57.02 C290.2,93.1 321.65,139.18 366.78,150.82 C397.52,158.75 431.09,149.57 463.78,144.38 C518.36,135.7 572.18,138.19 625.62,141.45 C676.78,144.57 728.25,148.45 775.92,166.45 C809.65,179.2 835.54,205.74 867.02,223 C887.54,234.25 910.69,235.68 929.81,250.68 C953.36,269.16 973.74,303.27 964.31,346.39 C955.32,387.41 922.56,410.66 902.88,442.5 Z" id="Path" fill="#64E8B0" fill-rule="nonzero" opacity="0.1"></path>
                <path d="M665.49,306.88 C665.49,306.88 766.49,222.25 788.95,179.58 C811.41,136.91 840,100.14 840,100.14" id="Path" stroke="#535461" stroke-width="2"></path>
                <path d="M826.72,195.53 L783.03,185.68 C783.03,185.68 793.34,231.76 826.72,195.53 Z" id="Path" fill="#64E8B0" fill-rule="nonzero"></path>
                <path d="M759.96,148.49 L785.1,186.14 C785.1,186.14 735.95,189.69 759.96,148.49 Z" id="Path" fill="#64E8B0" fill-rule="nonzero"></path>
                <path d="M843.91,160.14 L803.98,153.14 C803.98,153.14 829.06,191.29 843.91,160.14 Z" id="Path" fill="#64E8B0" fill-rule="nonzero"></path>
                <path d="M784.82,126.49 L804.49,152.25 C804.49,152.25 769.67,155.55 784.82,126.49 Z" id="Path" fill="#64E8B0" fill-rule="nonzero"></path>
                <path d="M824.63,121.36 C824.63,121.36 858.63,122.98 862.63,126.23 C866.63,129.48 857.56,148.53 844.63,145.42 C831.7,142.31 824.63,121.36 824.63,121.36 Z" id="Path" fill="#64E8B0" fill-rule="nonzero"></path>
                <path d="M811.04,90.97 C811.04,90.97 824.93,116.28 824.41,121.1 C823.89,125.92 803.24,131.33 799.07,113.1 C794.9,94.87 811.04,90.97 811.04,90.97 Z" id="Path" fill="#64E8B0" fill-rule="nonzero"></path>
                <circle id="Oval" fill="#FFD037" fill-rule="nonzero" transform="translate(845.219000, 107.453500) rotate(-72.474432) translate(-845.219000, -107.453500) " cx="845.219" cy="107.4535" r="9.45434552"></circle>
                <circle id="Oval" fill="#FFD037" fill-rule="nonzero" transform="translate(830.418500, 97.724000) rotate(-72.474432) translate(-830.418500, -97.724000) " cx="830.4185" cy="97.724" r="9.45434552"></circle>
                <path d="M350.46,638.63 C350.46,638.63 366.67,590.41 263.91,532.28 C263.91,532.28 159.57,501.85 170.24,397.35 C170.24,397.35 49.96,485.47 131.35,597.72 C212.74,709.97 282.99,685.47 282.99,685.47 L350.46,638.63 Z" id="Path" fill="#64E8B0" fill-rule="nonzero"></path>
                <path d="M319.13,660.41 C319.13,660.41 268.99,606.22 220.93,585.27 C211.329446,580.948851 202.507636,575.073276 194.82,567.88 C164.18,539.88 150.82,497.63 158.72,456.88 L170.27,397.35" id="Path" stroke="#535461" stroke-width="2"></path>
                <rect id="Rectangle" fill="#1C1C1C" fill-rule="nonzero" x="200.72" y="40.91" width="557.32" height="647.09"></rect>
                <rect id="Rectangle" fill="#343434" fill-rule="nonzero" x="234.38" y="113.85" width="140.89" height="11.22"></rect>
                <rect id="Rectangle" fill="#343434" fill-rule="nonzero" x="234.38" y="141.28" width="240.63" height="11.22"></rect>
                <rect id="Rectangle" fill="#343434" fill-rule="nonzero" x="631.36" y="103.13" width="99.99" height="86.28"></rect>
                <rect id="Rectangle" fill="#343434" fill-rule="nonzero" x="530.37" y="103.13" width="99.99" height="86.28"></rect>
                <rect id="Rectangle" fill="#343434" fill-rule="nonzero" x="631.36" y="190.41" width="99.99" height="86.28"></rect>
                <rect id="Rectangle" fill="#343434" fill-rule="nonzero" x="530.37" y="190.41" width="99.99" height="86.28"></rect>
                <rect id="Rectangle" fill="#343434" fill-rule="nonzero" x="429.38" y="190.41" width="99.99" height="86.28"></rect>
                <rect id="Rectangle" fill="#343434" fill-rule="nonzero" x="328.39" y="190.41" width="99.99" height="86.28"></rect>
                <rect id="Rectangle" fill="#343434" fill-rule="nonzero" x="227.4" y="190.41" width="99.99" height="86.28"></rect>
                <rect id="Rectangle" fill="#343434" fill-rule="nonzero" x="631.36" y="277.68" width="99.99" height="86.28"></rect>
                <rect id="Rectangle" fill="#343434" fill-rule="nonzero" x="530.37" y="277.68" width="99.99" height="86.28"></rect>
                <rect id="Rectangle" fill="#343434" fill-rule="nonzero" x="429.38" y="277.68" width="99.99" height="86.28"></rect>
                <rect id="Rectangle" fill="#343434" fill-rule="nonzero" x="328.39" y="277.68" width="99.99" height="86.28"></rect>
                <rect id="Rectangle" fill="#343434" fill-rule="nonzero" x="227.4" y="277.68" width="99.99" height="86.28"></rect>
                <rect id="Rectangle" fill="#343434" fill-rule="nonzero" x="631.36" y="364.96" width="99.99" height="86.28"></rect>
                <rect id="Rectangle" fill="#343434" fill-rule="nonzero" x="530.37" y="364.96" width="99.99" height="86.28"></rect>
                <rect id="Rectangle" fill="#343434" fill-rule="nonzero" x="429.38" y="364.96" width="99.99" height="86.28"></rect>
                <rect id="Rectangle" fill="#343434" fill-rule="nonzero" x="328.39" y="364.96" width="99.99" height="86.28"></rect>
                <rect id="Rectangle" fill="#343434" fill-rule="nonzero" x="227.4" y="364.96" width="99.99" height="86.28"></rect>
                <rect id="Rectangle" fill="#343434" fill-rule="nonzero" x="631.36" y="452.23" width="99.99" height="86.28"></rect>
                <rect id="Rectangle" fill="#343434" fill-rule="nonzero" x="530.37" y="452.23" width="99.99" height="86.28"></rect>
                <rect id="Rectangle" fill="#343434" fill-rule="nonzero" x="429.38" y="452.23" width="99.99" height="86.28"></rect>
                <rect id="Rectangle" fill="#343434" fill-rule="nonzero" x="328.39" y="452.23" width="99.99" height="86.28"></rect>
                <rect id="Rectangle" fill="#343434" fill-rule="nonzero" x="227.4" y="452.23" width="99.99" height="86.28"></rect>
                <rect id="Rectangle" fill="#343434" fill-rule="nonzero" x="631.36" y="539.51" width="99.99" height="86.28"></rect>
                <rect id="Rectangle" fill="#343434" fill-rule="nonzero" x="530.37" y="539.51" width="99.99" height="86.28"></rect>
                <rect id="Rectangle" fill="#343434" fill-rule="nonzero" x="429.38" y="539.51" width="99.99" height="86.28"></rect>
                <rect id="Rectangle" fill="#343434" fill-rule="nonzero" x="328.39" y="539.51" width="99.99" height="86.28"></rect>
                <rect id="Rectangle" fill="#343434" fill-rule="nonzero" x="227.4" y="539.51" width="99.99" height="86.28"></rect>
                <path d="M437.42,704.89 C440.28,702.72 442.97,700.16 443.8,697.04 C444.684775,693.610636 442.722287,690.090477 439.34,689.04 C435.25,687.76 430.88,690.04 427.56,692.41 C424.24,694.78 420.45,697.41 416.11,696.92 C420.6,693.67 422.74,688.4 421.5,683.61 C421.287409,682.577955 420.763952,681.635733 420,680.91 C417.73,678.91 413.61,679.78 410.89,681.34 C402.24,686.34 399.83,695.89 399.78,704.52 C398.91,701.41 399.64,698.17 399.62,694.97 C399.6,691.77 398.53,688.24 395.23,686.52 C393.118141,685.604353 390.830869,685.163968 388.53,685.23 C384.64,685.11 380.31,685.43 377.66,687.75 C374.36,690.63 375.22,695.47 378.09,698.64 C380.96,701.81 385.33,703.8 389.34,705.99 C392.4,707.66 395.5,709.61 397.34,712.25 C397.581258,712.599718 397.782517,712.975402 397.94,713.37 L422.31,713.37 C427.678105,711.179352 432.753566,708.330913 437.42,704.89 L437.42,704.89 Z" id="Path" fill="#64E8B0" fill-rule="nonzero"></path>
                <circle id="Oval" fill="#FC6681" fill-rule="nonzero" cx="240.59" cy="203.53" r="5.7"></circle>
                <circle id="Oval" fill="#FFD037" fill-rule="nonzero" cx="254.83" cy="203.53" r="5.7"></circle>
                <circle id="Oval" fill="#64E8B0" fill-rule="nonzero" cx="441.87" cy="288.03" r="5.7"></circle>
                <circle id="Oval" fill="#64E8B0" fill-rule="nonzero" cx="456.12" cy="288.03" r="5.7"></circle>
                <circle id="Oval" fill="#64E8B0" fill-rule="nonzero" cx="746.64" cy="451.33" r="5.7"></circle>
                <circle id="Oval" fill="#64E8B0" fill-rule="nonzero" cx="749.49" cy="444.69" r="5.7"></circle>
                <circle id="Oval" fill="#64E8B0" fill-rule="nonzero" cx="752.34" cy="438.99" r="5.7"></circle>
                <circle id="Oval" fill="#64E8B0" fill-rule="nonzero" cx="646" cy="203.53" r="5.7"></circle>
                <circle id="Oval" fill="#64E8B0" fill-rule="nonzero" cx="660.24" cy="203.53" r="5.7"></circle>
                <circle id="Oval" fill="#64E8B0" fill-rule="nonzero" cx="674.49" cy="203.53" r="5.7"></circle>
                <circle id="Oval" fill="#64E8B0" fill-rule="nonzero" cx="688.73" cy="203.53" r="5.7"></circle>
                <circle id="Oval" fill="#64E8B0" fill-rule="nonzero" cx="646" cy="380.12" r="5.7"></circle>
                <circle id="Oval" fill="#64E8B0" fill-rule="nonzero" cx="660.24" cy="380.12" r="5.7"></circle>
                <circle id="Oval" fill="#64E8B0" fill-rule="nonzero" cx="674.49" cy="380.12" r="5.7"></circle>
                <circle id="Oval" fill="#64E8B0" fill-rule="nonzero" cx="688.73" cy="380.12" r="5.7"></circle>
                <circle id="Oval" fill="#FFD037" fill-rule="nonzero" cx="341.23" cy="288.03" r="5.7"></circle>
                <circle id="Oval" fill="#FC6681" fill-rule="nonzero" cx="240.59" cy="374.43" r="5.7"></circle>
                <path d="M741.72,465.63 C747.97,469.32 757.72,471.72 770.07,463.79 L769.95,481.35 C770.83,493.35 785.72,537.26 785.72,537.26 L796.22,573.36 C803.743614,598.863049 807.628627,625.30066 807.76,651.89 C807.76,660.7 808.58,669.78 811.11,676.61 C816.7,691.72 808.91,711.19 805.53,718.44 C799.840537,720.361793 794.056276,721.990598 788.2,723.32 C787.673211,723.441102 787.155333,723.598136 786.65,723.79 L786.58,723.69 C786.58,723.69 770.82,729.94 763.82,729.08 C758.6,728.44 755.33,734.95 759.42,739.74 C755.56,740.74 751.6,741.45 748.93,741.12 C741.93,740.26 738.42,752.3 751.56,755.74 C764.7,759.18 839.15,755.74 839.15,755.74 C843.457185,753.585099 845.760663,748.788928 844.75,744.08 C850.47,743.86 854.04,743.69 854.04,743.69 C854.04,743.69 867.18,737.69 854.04,721.32 L853.34,721.85 L850.53,713.58 L850.53,702.41 C850.53,702.41 867.17,622.41 861.92,612.95 C856.67,603.49 854.04,555.32 854.04,555.32 L855.82,502.85 C860.57,493.05 863,477.69 864.23,465.68 C866.017164,459.950323 867.144461,454.03537 867.59,448.05 C867.8,445.23 867.97,442.27 868.08,439.2 C868.124301,432.466129 867.021885,425.773858 864.82,419.41 C869.82,412.21 877.95,401.08 884.66,394.5 C895.17,384.18 892.54,372.13 892.54,372.13 L888.16,342.88 L877.65,292.99 C878.97,279.15 876.08,271.18 872.89,266.68 C873.65,262.21 874.36,257.74 874.89,253.25 C877.219594,233.724577 876.181191,213.94418 871.82,194.77 C870.3,188.08 868.23,181.22 863.54,176.15 C858.23,170.41 849.61,166.91 847.63,159.39 C847.14,157.52 847.12,155.53 846.41,153.73 C844.49,148.81 838.41,147.02 833.09,146.38 C823.61,145.23 809.9,144.38 800.79,148.08 C794.43,150.68 785.67,157.84 782.19,165.52 C780.19,169.05 779.26,172.76 780.11,176.25 C780.445248,177.535924 780.953203,178.77049 781.62,179.92 C780.262827,183.598401 779.572028,187.489224 779.58,191.41 C779.644699,205.202398 788.141437,217.550832 801,222.54 C801.21,223.2 801.4,223.85 801.56,224.49 C801.957968,226.030863 802.245365,227.598185 802.42,229.18 C802.25,232.18 802.06,235.27 801.92,238.32 C801.82,238.74 801.713333,239.153333 801.6,239.56 C794.06712,242.895114 786.722764,246.640735 779.6,250.78 C784.86,258.52 778.72,291.21 778.72,291.21 C765.58,298.95 752.44,318.74 766.46,339.38 C780.48,360.02 772.59,382.38 772.59,382.38 L770.4,416.01 L770.4,416.01 L770.4,416.07 L769.96,422.8 L770.13,422.8 L769.96,425.35 L770.34,425.42 L770.34,428.16 C764.19,430.42 755.2,434.98 749.84,443.41 C747.305412,447.556912 744.220693,451.341327 740.67,454.66 C739.014873,456.092215 738.155608,458.237151 738.364154,460.415956 C738.5727,462.594762 739.823243,464.537756 741.72,465.63 Z M847.48,376.27 C846.952756,370.451852 848.028292,364.60038 850.59,359.35 C852.65,359.39 854.713333,359.413333 856.78,359.42 C856.99,360.87 857.24,362.25 857.54,363.51 C859.32,371.09 852.21,374.72 847.47,376.26 L847.48,376.27 Z" id="Shape" fill="url(#linearGradient-1)" fill-rule="nonzero"></path>
                <path d="M849.21,709.66 L852.58,719.77 L841.58,730.77 L805.34,739.2 L779.21,736.67 L780.9,727.4 L780.9,727.4 C781.917749,723.336868 785.121309,720.183484 789.2,719.23 C799.94,716.71 820.42,710.95 824.72,702.96 L849.21,709.66 Z" id="Path" fill="#DB8B8B" fill-rule="nonzero"></path>
                <path d="M849.21,709.66 L852.58,719.77 L841.58,730.77 L805.34,739.2 L779.21,736.67 L780.9,727.4 L780.9,727.4 C781.917749,723.336868 785.121309,720.183484 789.2,719.23 C799.94,716.71 820.42,710.95 824.72,702.96 L849.21,709.66 Z" id="Path" fill="#000000" fill-rule="nonzero" opacity="0.1"></path>
                <path d="M787.68,734.1 L792.74,727.36 L787.68,719.55 C787.68,719.55 772.51,725.67 765.77,724.83 C759.03,723.99 755.66,735.83 768.3,739.16 C780.94,742.49 852.58,739.16 852.58,739.16 C852.58,739.16 865.22,733.26 852.58,717.25 L841.58,725.68 C841.58,725.68 823.04,735.79 813.77,734.11 L787.68,734.1 Z" id="Path" fill="#2E3037" fill-rule="nonzero"></path>
                <path d="M764.92,748.41 L791.05,750.94 L827.29,742.51 L838.29,731.51 L837.4,728.83 L836.14,725.07 L834.88,721.41 L810.44,714.67 C809.191357,716.707964 807.477964,718.421357 805.44,719.67 C797.5,725.1 783.24,729.02 774.87,730.98 C774.530791,731.063327 774.196863,731.166845 773.87,731.29 C770.267798,732.500246 767.531001,735.463225 766.61,739.15 L764.92,748.41 Z" id="Path" fill="#DB8B8B" fill-rule="nonzero"></path>
                <path d="M764.92,748.41 L791.05,750.94 L827.29,742.51 L838.29,731.51 L837.4,728.83 L827.34,736.57 C827.34,736.57 808.8,746.68 799.53,745 L773.35,745 L778.41,738.26 L773.87,731.26 C770.267798,732.470246 767.531001,735.433225 766.61,739.12 L764.92,748.41 Z" id="Path" fill="#000000" fill-rule="nonzero" opacity="0.1"></path>
                <path d="M773.35,745.9 L778.41,739.16 L773.35,731.35 C773.35,731.35 758.18,737.47 751.44,736.63 C744.7,735.79 741.33,747.63 753.97,750.96 C766.61,754.29 838.25,750.96 838.25,750.96 C838.25,750.96 850.89,745.06 838.25,729.05 L827.25,737.48 C827.25,737.48 808.71,747.59 799.44,745.91 L773.35,745.9 Z" id="Path" fill="#2E3037" fill-rule="nonzero"></path>
                <path d="M794.42,257.07 C794.42,257.07 834.88,261.28 828.98,244.43 C827.3302,239.651591 826.90052,234.536681 827.73,229.55 C828.779504,223.367455 831.224804,217.505574 834.88,212.41 L796.95,218.31 C799.222706,222.11056 800.952792,226.210257 802.09,230.49 C806.61,248.36 794.42,257.07 794.42,257.07 Z" id="Path" fill="#DB8B8B" fill-rule="nonzero"></path>
                <path d="M863.53,449.23 C863.53,449.23 862.69,485.47 854.26,503.17 L852.57,554.58 C852.57,554.58 855.1,601.78 860.16,611.05 C865.22,620.32 849.16,698.7 849.16,698.7 L849.16,712.19 C849.16,712.19 822.16,722.3 814.6,710.5 L822.19,610.2 L818.82,471.14 L863.53,449.23 Z" id="Path" fill="#474463" fill-rule="nonzero"></path>
                <path d="M863.53,449.23 C863.53,449.23 862.69,485.47 854.26,503.17 L852.57,554.58 C852.57,554.58 855.1,601.78 860.16,611.05 C865.22,620.32 849.16,698.7 849.16,698.7 L849.16,712.19 C849.16,712.19 822.16,722.3 814.6,710.5 L822.19,610.2 L818.82,471.14 L863.53,449.23 Z" id="Path" fill="#000000" fill-rule="nonzero" opacity="0.1"></path>
                <path d="M880.39,332.92 L885.45,346.41 L889.66,375.07 C890.814132,383.170252 887.98762,391.329525 882.07,396.98 C871.96,407.09 858.47,428.16 858.47,428.16 L842.47,380.16 C842.47,380.16 858.47,377.63 855.96,366.67 C853.45,355.71 854.26,335.41 854.26,335.41 L880.39,332.92 Z" id="Path" fill="#FC6681" fill-rule="nonzero"></path>
                <path d="M880.39,332.92 L885.45,346.41 L889.66,375.07 C890.814132,383.170252 887.98762,391.329525 882.07,396.98 C871.96,407.09 858.47,428.16 858.47,428.16 L842.47,380.16 C842.47,380.16 858.47,377.63 855.96,366.67 C853.45,355.71 854.26,335.41 854.26,335.41 L880.39,332.92 Z" id="Path" fill="#000000" fill-rule="nonzero" opacity="0.05"></path>
                <path d="M805.48,719.68 C816.29,736.68 833.12,727.05 836.1,725.13 L834.88,721.41 L810.44,714.67 C809.203936,716.707034 807.504534,718.423567 805.48,719.68 L805.48,719.68 Z" id="Path" fill="#000000" fill-rule="nonzero" opacity="0.1"></path>
                <path d="M771.67,482.1 C772.51,493.9 786.84,536.88 786.84,536.88 L796.95,572.25 C804.194556,597.259271 807.933548,623.152887 808.06,649.19 C808.06,657.82 808.85,666.72 811.29,673.41 C818.03,691.95 804.55,717.24 804.55,717.24 C816.35,738.31 836.55,723.98 836.55,723.98 L836.55,710.5 C836.55,710.5 852.55,637.17 848.35,622.85 C844.15,608.53 842.45,569.75 842.45,569.75 L842.45,499.75 C855.950887,486.29732 864.160908,468.436176 865.58,449.43 C865.78,446.67 865.94,443.77 866.05,440.76 C866.73,421.76 853.73,399.45 848.65,391.51 C847.43,389.59 846.65,388.51 846.65,388.51 L772.23,418.03 L772.06,418.1 L772.06,420.98 L772.06,427.35 L771.67,482.1 Z" id="Path" fill="#474463" fill-rule="nonzero"></path>
                <path d="M796.95,218.3 C799.222706,222.10056 800.952792,226.200257 802.09,230.48 C810.413581,233.637989 819.660006,233.299001 827.73,229.54 C828.78096,223.360946 831.226197,217.502636 834.88,212.41 L796.95,218.3 Z" id="Path" fill="#000000" fill-rule="nonzero" opacity="0.1"></path>
                <circle id="Oval" fill="#DB8B8B" fill-rule="nonzero" cx="813.81" cy="198.06" r="32.87"></circle>
                <path d="M771.67,427.32 L772.03,427.39 C807.37,434.66 851.74,397.82 851.74,397.82 C850.551019,395.815257 849.524408,393.718562 848.67,391.55 C847.45,389.63 846.67,388.55 846.67,388.55 L772.25,418.07 L772.06,421.02 L771.67,427.32 Z" id="Path" fill="#000000" fill-rule="nonzero" opacity="0.1"></path>
                <path d="M780.94,256.22 C780.94,256.22 828.14,227.56 843.31,239.36 L864.38,266.36 C864.38,266.36 877.87,270.57 875.38,297.54 L885.45,346.41 L855.11,354 C855.11,354 837.41,370.86 851.74,395.3 C851.74,395.3 807.07,432.38 771.67,424.8 L774.2,385.19 C774.2,385.19 781.79,363.28 768.3,343.05 C754.81,322.82 767.46,303.44 780.1,295.85 C780.1,295.84 785.99,263.81 780.94,256.22 Z" id="Path" fill="#FC6681" fill-rule="nonzero"></path>
                <path d="M778.41,428.16 C778.41,428.16 760.71,431.53 752.28,445.02 C749.847672,449.066356 746.880956,452.766343 743.46,456.02 C741.899683,457.435258 741.097089,459.502769 741.293837,461.600109 C741.490586,463.697449 742.663695,465.579622 744.46,466.68 C751.15,470.68 762.06,473.17 775.84,461.85 C799.48,442.49 778.41,428.16 778.41,428.16 Z" id="Path" fill="#DB8B8B" fill-rule="nonzero"></path>
                <path d="M804.54,272.24 C804.54,272.24 821.4,270.55 825.61,314.38 C829.82,358.21 836.61,368.32 836.61,368.32 C836.61,368.32 840.82,391.08 830.71,404.56 C820.6,418.04 801.21,446.7 801.21,446.7 C801.21,446.7 780.14,452.6 775.93,431.53 L802.06,382.65 C802.06,382.65 806.27,365.79 796.16,353.99 C786.05,342.19 778.41,263.81 804.54,272.24 Z" id="Path" fill="#000000" fill-rule="nonzero" opacity="0.1"></path>
                <path d="M802.82,269.71 C802.82,269.71 819.68,268.02 823.89,311.85 C828.1,355.68 834.89,365.79 834.89,365.79 C834.89,365.79 839.1,388.55 828.99,402.03 C818.88,415.51 799.49,444.17 799.49,444.17 C799.49,444.17 778.42,450.07 774.21,429 L800.34,380.12 C800.34,380.12 804.55,363.26 794.44,351.46 C784.33,339.66 776.72,261.28 802.82,269.71 Z" id="Path" fill="#FC6681" fill-rule="nonzero"></path>
                <path d="M788.94,301.31 C788.94,301.31 787.26,327.41 794.82,341.77 C802.38,356.13 802.41,374.64 794.82,384.77" id="Path" fill="#000000" fill-rule="nonzero" opacity="0.1"></path>
                <path d="M784.73,269.29 C784.73,269.29 791.47,262.55 810.86,261.7 C830.25,260.85 838.67,254.96 838.67,254.96" id="Path" fill="#000000" fill-rule="nonzero" opacity="0.1"></path>
                <path d="M831.61,155.59 C836.73,156.22 842.61,157.98 844.43,162.79 C845.11,164.56 845.13,166.51 845.6,168.34 C847.51,175.7 855.8,179.13 860.91,184.76 C865.42,189.76 867.41,196.45 868.91,203 C873.11809,221.782814 874.132278,241.140282 871.91,260.26 C870.27,274.26 866.91,288 865.97,302.04 C865.03,316.08 866.75,330.85 874.42,342.65 C877.72,347.72 882.08,352.18 884.42,357.76 C879.59,361.68 872.92,362.24 866.69,362.45 C859.443333,362.696667 852.193333,362.696667 844.94,362.45 C841.14,362.32 837.17,362.07 833.89,360.15 C831.461333,358.596747 829.465891,356.453366 828.09,353.92 C823.94,346.92 822.9,338.42 823.09,330.26 C823.28,322.1 824.56,313.98 824.71,305.81 C824.79,301.36 824.44,296.63 821.88,292.99 C820.03,290.36 817.22,288.59 814.82,286.46 C805.82,278.46 802.7,265.64 802.4,253.59 C802.1,241.54 804.09,229.47 803.07,217.46 C802.67,212.76 800.91,207.11 796.29,206.2 C794.83,205.91 793.29,206.2 791.89,205.64 C788.18,204.21 788.54,198.98 787.48,195.15 C786.29,190.85 782.62,187.53 781.59,183.15 C779.16,172.95 792.14,160.78 800.65,157.23 C809.3,153.61 822.49,154.47 831.61,155.59 Z" id="Path" fill="#000000" fill-rule="nonzero" opacity="0.1"></path>
                <path d="M832.45,153.91 C837.57,154.54 843.45,156.3 845.27,161.11 C845.95,162.88 845.97,164.83 846.44,166.66 C848.35,174.02 856.64,177.45 861.75,183.08 C866.26,188.08 868.25,194.77 869.75,201.32 C873.95809,220.102814 874.972278,239.460282 872.75,258.58 C871.11,272.58 867.75,286.32 866.81,300.36 C865.87,314.4 867.59,329.17 875.26,340.97 C878.56,346.04 882.92,350.5 885.26,356.08 C880.43,360 873.76,360.56 867.53,360.77 C860.283333,361.016667 853.033333,361.016667 845.78,360.77 C841.98,360.64 838.01,360.39 834.73,358.47 C832.301333,356.916747 830.305891,354.773366 828.93,352.24 C824.78,345.24 823.74,336.74 823.93,328.58 C824.12,320.42 825.4,312.3 825.55,304.13 C825.63,299.68 825.28,294.95 822.72,291.31 C820.87,288.68 818.06,286.91 815.66,284.78 C806.66,276.78 803.54,263.96 803.24,251.91 C802.94,239.86 804.93,227.79 803.91,215.78 C803.51,211.08 801.75,205.43 797.13,204.52 C795.67,204.23 794.13,204.52 792.73,203.96 C789.02,202.53 789.38,197.3 788.32,193.47 C787.13,189.17 783.46,185.85 782.43,181.47 C780,171.27 792.98,159.1 801.49,155.55 C810.14,151.92 823.33,152.78 832.45,153.91 Z" id="Path" fill="#472727" fill-rule="nonzero"></path>
            </g>
        </g>
    </g>
</svg>